<svg class="solo" xmlns="http://www.w3.org/2000/svg" viewBox="0 0 104.6 34"><path d="M33.5 17.8v-1.86a4.7 4.7 0 0 1-4.21 2.12c-2.93 0-5.24-1.51-5.24-4.96V4.28h3.05v8.84c0 2.24 1.42 2.84 2.79 2.84 3.32 0 3.32-2.96 3.32-4.34V4.28h2.93V17.8zM94.78 4.62a14.94 14.94 0 0 1 9.82 14c0 8.32-6.91 15.04-15.47 15.04-1.56 0-2.93-.19-4.34-.59v-8.72H94.9v-1.37H83.25v9.55a15.15 15.15 0 0 1-9.58-13.93c0-8.3 6.92-15.03 15.48-15.03 1.39 0 2.8.12 4.09.53v8.7H83.13v1.5h11.65V4.63zm-44.12 8.1c-.42 2.7-2.18 5.2-6.38 5.2-4.09 0-6.64-2.85-6.64-6.72 0-3.87 2.03-7.32 6.64-7.32 4.22 0 6.65 2.96 6.65 7.56H40.71c0 1.86.9 4.1 3.86 4.1a3.3 3.3 0 0 0 3.58-2.97l2.51.14zm-2.97-3.03c-.12-1.86-1.29-3.64-3.45-3.64A3.58 3.58 0 0 0 40.5 9.7h7.19zm11.92-1.96c0-.58-.6-1.74-2.78-1.74-.77 0-2.78 0-2.78 1.52 0 1.51 1.55 1.63 3.94 1.98 2.79.52 5.11 1.1 5.11 4.1 0 2.7-2.7 4.21-6.02 4.21-6.38 0-6.02-3.63-6.13-5.08h2.78c.13.98-.25 2.96 3.33 2.96 1.78 0 3.05-.4 3.05-1.85 0-1.52-1.29-1.74-3.74-2.12-3.45-.53-5.23-1.64-5.23-4.22 0-2.97 2.93-3.75 5.9-3.75 5.23 0 5.48 3.75 5.48 3.97.15.02-2.9.02-2.9.02zm8.17-1.5v8.2c0 .99.76.99 1.28.99h1.42v2.11h-3.45c-.75 0-2.04-.86-2.04-2.48V6.22h-2.3V4.24H65V0h2.79v4.34h2.7v1.98l-2.73-.08zM5.23 22.63V33.7H2.31V22.62H0v-2.24h2.3v-2.24c0-1.98 1.8-2.84 3.06-2.84h2.7v2.36H6.5c-.9 0-1.41.4-1.41 1.37v1.25h2.78v2.24h-2.7v.08h.06v.02zm6.9 11.05H9.57v-13.3h2.7v2.36a4.66 4.66 0 0 1 4.1-2.62h1.28v2.48h-1.14a4.02 4.02 0 0 0-4.24 3.75zm30.45 0h-2.9v-8.1c0-2.48-.9-3.46-2.94-3.46-1.41 0-3.32.98-3.32 3.97v7.57h-2.93V20.34h2.93v1.74a5.36 5.36 0 0 1 4.22-2.36c1.28 0 5 .74 5 4.96v9.02h-.06zm11.13-9.04a3 3 0 0 0-3.05-2.48c-3.05 0-3.95 2.36-3.95 4.74 0 1.98.6 4.74 3.95 4.74 1.79 0 2.78-1.37 3.2-2.97h3.05c-.25 2.12-1.78 5.33-6.13 5.33-4.46 0-6.77-2.85-6.77-7.06 0-4.97 3.2-7.19 6.77-7.19 3.33 0 5.78 2.12 6.03 4.87zM16.22 3.87c4.76 0 6.92 3.11 6.92 6.99 0 3.83-2.3 7.06-6.92 7.06-5.23 0-7.06-3.47-7.06-7.06.06-4.4 2.62-6.98 7.06-6.98zm0 11.95c2.93 0 3.95-3.23 3.95-4.86 0-1.37-.77-4.74-3.95-4.74-2.95 0-4.21 2.36-4.21 4.74 0 1.75.78 4.86 4.21 4.86zm54.13 12.77c-.41 2.7-2.18 5.2-6.38 5.2-4.09 0-6.64-2.84-6.64-6.71s2.03-7.32 6.64-7.32c4.22 0 6.65 2.96 6.65 7.56H60.38c0 1.86.9 4.1 3.86 4.1a3.3 3.3 0 0 0 3.58-2.97zm-2.85-2.96c-.12-1.86-1.28-3.64-3.44-3.64a3.58 3.58 0 0 0-3.74 3.64zm-50.14-1.25c.13-3.23 2.56-4.62 6.26-4.62 1.9 0 5.48.52 5.48 3.97v9.83h-2.7v-1.38c-.9 1-2.78 1.74-4.76 1.74-3.45 0-4.75-1.98-4.75-3.98 0-1.1.12-3.63 4.21-4.1l3.87-.58c.77 0 1.28-.58 1.28-1.51 0-1.25-.76-1.63-2.78-1.63-2.18 0-3.05.74-3.05 2.11.04.14-3.06.14-3.06.14zm9.1 2.58c-.41.24-.9.52-4.09.87-1.14.12-2.43.4-2.43 1.97 0 1.38 1.02 1.86 2.43 1.86 1.79 0 3.95-.99 3.95-2.48z" fill="#e2001a"/></svg>